<?xml version="1.0" standalone="no"?>
<!DOCTYPE svg PUBLIC "-//W3C//DTD SVG 20010904//EN"
 "http://www.w3.org/TR/2001/REC-SVG-20010904/DTD/svg10.dtd">
<svg version="1.0" xmlns="http://www.w3.org/2000/svg"
 width="1122.000000pt" height="1280.000000pt" viewBox="0 0 1122.000000 1280.000000"
 preserveAspectRatio="xMidYMid meet">
<metadata>
Created by potrace 1.15, written by Peter Selinger 2001-2017
</metadata>
<g transform="translate(0.000000,1280.000000) scale(0.100000,-0.100000)"
fill="#000000" stroke="none">
<path d="M6156 12328 c-5 -434 -19 -3523 -31 -7163 -3 -808 -8 -1565 -11
-1681 l-6 -211 -82 49 c-410 249 -933 400 -1566 454 -169 14 -679 20 -792 9
-29 -3 -109 -10 -178 -15 -706 -59 -1443 -257 -2027 -544 -212 -105 -302 -155
-478 -272 -818 -540 -1154 -1222 -899 -1827 199 -472 784 -849 1587 -1021 344
-74 607 -99 1032 -100 434 -1 709 23 1125 100 170 31 487 104 599 139 617 189
1023 371 1434 642 270 178 556 441 699 643 106 149 197 336 226 465 8 36 15
656 22 2140 5 1150 13 2564 16 3142 l7 1053 51 19 c395 145 1110 -8 1846 -396
666 -352 1241 -824 1517 -1245 74 -113 107 -181 157 -333 21 -60 77 -194 126
-297 116 -244 134 -301 128 -421 -11 -227 -161 -450 -596 -887 l-244 -245 7
-83 c18 -232 124 -444 282 -564 113 -85 235 -112 303 -65 81 54 400 652 543
1017 131 334 207 618 249 930 16 123 16 499 0 615 -43 309 -142 602 -294 869
-88 157 -233 368 -302 443 -67 72 -303 294 -661 623 -917 841 -1398 1325
-1805 1815 -317 383 -517 666 -1075 1523 -304 466 -455 676 -640 892 -122 143
-235 260 -250 260 -10 0 -14 -105 -19 -472z"/>
</g>
</svg>
